<svg xmlns="http://www.w3.org/2000/svg" xml:space="preserve" width="506.31265" height="600" viewBox="0 0 506.31265 599.99999"><path d="M559.31 58.036c-27.662 17.684-55.876 12.84-77.695 2.164v86.555H279.762V64.612h35.92v46.199h129.953V-11.52s34.129 34.176 53.52 40.764c3.185 1.358 6.407 2.476 9.809 3.15 7.08 1.719 14.81 1.983 22.6-.842v-93.25c-26.375 4.423-51.211-6.312-67.921-18.754-16.71 12.442-41.582 23.177-68.054 18.754v77.346l-8.162 5.325c-36.005 23.13-73.151 8.271-95.691-8.45-22.529 16.721-59.711 31.58-95.631 8.45l-8.259-5.325v-157.23c5.266 5.11 27.794 24.465 56.393 18.141.084 0 .288-.132.409-.132.3-.036.577-.108.757-.168a27.03 27.03 0 0 0 1.743-.47c10.507-3.005 19.307-9.508 24.332-13.86v-165.175h203.187v144.979h-35.92v-109.035H307.435v143.729l-4.556 5.121c-13.85 15.4-44.78 36.257-79.006 30.463v82.587c27.313 9.57 53.664-16.938 54.879-18.224l12.935-13.344 13.055 13.344c1.25 1.286 27.565 27.793 55.01 18.224-.072-15.135-.072-88.827-.072-109.3 17.251 11.541 30.162 16.326 39.31 18.045 4.22.697 9.173.962 14.534.229.096 0 .169-.06.277-.06 3.474-.493 6.816-1.347 9.99-2.61.336-.047.673-.144.913-.252 14.57-5.65 25.125-16.313 25.943-17.226l12.85-13.344 13.116 13.344c.781.913 12.575 12.838 28.335 18.08 9.52 2.981 23.177 4.556 39.082-1.876 6.888-2.825 14.858-7.236 23.55-14.33V52.712Z" style="fill:#1b65b9;fill-opacity:1;fill-rule:nonzero;stroke:none;stroke-width:12.0215" transform="matrix(1.33333 0 0 -1.33333 -250.461 195.673)"/></svg>